<mxfile host="app.diagrams.net" modified="2024-05-29T23:41:47.110Z" agent="Mozilla/5.0 (Windows NT 10.0; Win64; x64) AppleWebKit/537.36 (KHTML, like Gecko) Chrome/125.0.0.0 Safari/537.36" version="24.4.0" etag="j-GFqDcyrE3WFfy9V0_G" type="github">
  <diagram name="Page-1" id="D2q3CTD9yseETicwrILn">
    <mxGraphModel>
      <root>
        <mxCell id="0" />
        <mxCell id="1" parent="0" />
      </root>
    </mxGraphModel>
  </diagram>
</mxfile>
